<svg width="74" height="74" viewBox="0 0 74 74" fill="none" xmlns="http://www.w3.org/2000/svg">
<g filter="url(#filter0_d_51_29)">
<rect x="2" y="1" width="70" height="70" rx="35" fill="#FDFDFD"/>
<path d="M36.0972 10.6678C33.6728 10.7322 31.5762 11.9485 30.42 14.4212C29.2639 16.8948 29.0309 20.7573 30.7307 26.1707V26.1902C31.0067 27.1071 30.9377 28.063 30.5063 28.7653C30.0749 29.4773 29.3933 29.8967 28.6168 30.1796C27.0638 30.7453 24.9672 30.8038 22.6376 30.6185C18.4358 30.2771 13.5438 29.0872 10.3531 27.8972C10.1512 33.3886 11.4989 38.9874 14.2599 43.2303C17.2106 47.7659 21.6972 50.7896 27.7195 50.6628C31.628 50.5848 36.2439 49.941 39.8159 48.1756C43.3879 46.4199 45.8555 43.7083 45.9676 39.163V39.1532C46.0194 37.2219 44.3801 34.5591 42.8357 31.867C42.0678 30.521 41.343 29.1554 40.9462 27.7314C40.5493 26.317 40.5148 24.7759 41.2222 23.3909L41.2395 23.3616L41.2568 23.3323C43.1722 20.1526 42.8702 17.0411 41.5933 14.6279C40.3249 12.2099 38.0126 10.6171 36.0972 10.6678ZM38.7288 14.7694C39.1405 14.7694 39.5354 14.9542 39.8266 15.2833C40.1178 15.6123 40.2816 16.0586 40.2818 16.5241C40.2818 16.7547 40.2416 16.983 40.1636 17.196C40.0855 17.409 39.9711 17.6025 39.8269 17.7656C39.6827 17.9286 39.5115 18.0579 39.3231 18.1462C39.1347 18.2344 38.9327 18.2798 38.7288 18.2798C38.3169 18.2798 37.9219 18.0948 37.6306 17.7656C37.3394 17.4363 37.1757 16.9897 37.1757 16.5241C37.176 16.0586 37.3397 15.6123 37.6309 15.2833C37.9221 14.9542 38.317 14.7694 38.7288 14.7694ZM44.1385 18.3969C44.173 19.7917 43.9314 21.2548 43.3447 22.7081C45.0272 22.591 46.6924 22.3765 47.9693 21.8888C48.7976 21.5864 49.4447 21.167 49.8502 20.689C50.0832 20.4062 50.2385 20.1038 50.3334 19.7429C48.2023 19.7722 45.9331 19.1284 44.1385 18.3969ZM37.8746 32.2962C38.4354 33.6227 38.4009 35.0468 37.935 36.2855C37.4691 37.5243 36.6149 38.607 35.5451 39.5921C33.4139 41.5429 30.4028 43.0548 27.4693 43.9619C24.5358 44.869 21.7403 45.2104 19.8163 44.4301C18.85 44.0399 18.0389 43.2011 17.9009 42.0404C17.7628 40.8699 18.2115 39.6214 19.1433 38.1583L20.403 39.1922C19.592 40.4602 19.3849 41.3576 19.4367 41.8063C19.4971 42.2647 19.7041 42.5183 20.334 42.7817C21.6023 43.2889 24.2942 43.123 27.0638 42.2647C29.8247 41.4161 32.6978 39.9433 34.5701 38.2266C35.5019 37.3682 36.1835 36.4514 36.5028 35.593C36.8306 34.7347 36.8565 33.9544 36.4769 33.057L37.8746 32.2962Z" fill="url(#paint0_linear_51_29)"/>
</g>
<defs>
<filter id="filter0_d_51_29" x="0" y="0" width="74" height="74" filterUnits="userSpaceOnUse" color-interpolation-filters="sRGB">
<feFlood flood-opacity="0" result="BackgroundImageFix"/>
<feColorMatrix in="SourceAlpha" type="matrix" values="0 0 0 0 0 0 0 0 0 0 0 0 0 0 0 0 0 0 127 0" result="hardAlpha"/>
<feOffset dy="1"/>
<feGaussianBlur stdDeviation="1"/>
<feComposite in2="hardAlpha" operator="out"/>
<feColorMatrix type="matrix" values="0 0 0 0 0 0 0 0 0 0 0 0 0 0 0 0 0 0 0.12 0"/>
<feBlend mode="normal" in2="BackgroundImageFix" result="effect1_dropShadow_51_29"/>
<feBlend mode="normal" in="SourceGraphic" in2="effect1_dropShadow_51_29" result="shape"/>
</filter>
<linearGradient id="paint0_linear_51_29" x1="33.1247" y1="30.8876" x2="20.761" y2="49.1149" gradientUnits="userSpaceOnUse">
<stop stop-color="#11C511"/>
<stop offset="1" stop-color="#0D3030"/>
</linearGradient>
</defs>
</svg>
